<svg xmlns="http://www.w3.org/2000/svg" style="display:none">
  <!-- Forum icon sprite sheet -->

  <symbol id="icon-board" viewBox="0 0 24 24">
    <rect x="3" y="3" width="18" height="18" rx="2" fill="none" stroke="currentColor" stroke-width="2"/>
    <line x1="3" y1="9" x2="21" y2="9" stroke="currentColor" stroke-width="2"/>
    <line x1="9" y1="9" x2="9" y2="21" stroke="currentColor" stroke-width="2"/>
  </symbol>

  <symbol id="icon-thread" viewBox="0 0 24 24">
    <path d="M21 15a2 2 0 01-2 2H7l-4 4V5a2 2 0 012-2h14a2 2 0 012 2z" fill="none" stroke="currentColor" stroke-width="2" stroke-linejoin="round"/>
  </symbol>

  <symbol id="icon-post" viewBox="0 0 24 24">
    <path d="M11 4H4a2 2 0 00-2 2v14a2 2 0 002 2h14a2 2 0 002-2v-7" fill="none" stroke="currentColor" stroke-width="2"/>
    <path d="M18.5 2.5a2.121 2.121 0 013 3L12 15l-4 1 1-4 9.5-9.5z" fill="none" stroke="currentColor" stroke-width="2"/>
  </symbol>

  <symbol id="icon-lock" viewBox="0 0 24 24">
    <rect x="3" y="11" width="18" height="11" rx="2" fill="none" stroke="currentColor" stroke-width="2"/>
    <path d="M7 11V7a5 5 0 0110 0v4" fill="none" stroke="currentColor" stroke-width="2"/>
  </symbol>

  <symbol id="icon-pin" viewBox="0 0 24 24">
    <path d="M12 2l3 9h8l-6.5 5 2.5 9-7-5.5L5 25l2.5-9L1 11h8z" fill="none" stroke="currentColor" stroke-width="2" stroke-linejoin="round"/>
  </symbol>

  <symbol id="icon-user" viewBox="0 0 24 24">
    <path d="M20 21v-2a4 4 0 00-4-4H8a4 4 0 00-4 4v2" fill="none" stroke="currentColor" stroke-width="2"/>
    <circle cx="12" cy="7" r="4" fill="none" stroke="currentColor" stroke-width="2"/>
  </symbol>

  <symbol id="icon-settings" viewBox="0 0 24 24">
    <circle cx="12" cy="12" r="3" fill="none" stroke="currentColor" stroke-width="2"/>
    <path d="M19.4 15a1.65 1.65 0 00.33 1.82l.06.06a2 2 0 010 2.83 2 2 0 01-2.83 0l-.06-.06a1.65 1.65 0 00-1.82-.33 1.65 1.65 0 00-1 1.51V21a2 2 0 01-4 0v-.09A1.65 1.65 0 009 19.4a1.65 1.65 0 00-1.82.33l-.06.06a2 2 0 01-2.83-2.83l.06-.06A1.65 1.65 0 004.68 15a1.65 1.65 0 00-1.51-1H3a2 2 0 010-4h.09A1.65 1.65 0 004.6 9a1.65 1.65 0 00-.33-1.82l-.06-.06a2 2 0 012.83-2.83l.06.06A1.65 1.65 0 009 4.68a1.65 1.65 0 001-1.51V3a2 2 0 014 0v.09a1.65 1.65 0 001 1.51 1.65 1.65 0 001.82-.33l.06-.06a2 2 0 012.83 2.83l-.06.06A1.65 1.65 0 0019.4 9a1.65 1.65 0 001.51 1H21a2 2 0 010 4h-.09a1.65 1.65 0 00-1.51 1z" fill="none" stroke="currentColor" stroke-width="2"/>
  </symbol>

  <symbol id="icon-arrow-left" viewBox="0 0 24 24">
    <line x1="19" y1="12" x2="5" y2="12" stroke="currentColor" stroke-width="2"/>
    <polyline points="12 19 5 12 12 5" fill="none" stroke="currentColor" stroke-width="2"/>
  </symbol>

  <symbol id="icon-plus" viewBox="0 0 24 24">
    <line x1="12" y1="5" x2="12" y2="19" stroke="currentColor" stroke-width="2"/>
    <line x1="5" y1="12" x2="19" y2="12" stroke="currentColor" stroke-width="2"/>
  </symbol>

  <symbol id="icon-trash" viewBox="0 0 24 24">
    <polyline points="3 6 5 6 21 6" fill="none" stroke="currentColor" stroke-width="2"/>
    <path d="M19 6v14a2 2 0 01-2 2H7a2 2 0 01-2-2V6m3 0V4a2 2 0 012-2h4a2 2 0 012 2v2" fill="none" stroke="currentColor" stroke-width="2"/>
  </symbol>
</svg>
